<svg width="50" height="50" viewBox="0 0 30 30" fill="none" xmlns="http://www.w3.org/2000/svg">
<path d="M10 26.25H25C25.663 26.25 26.2989 25.9866 26.7678 25.5178C27.2366 25.0489 27.5 24.413 27.5 23.75V21.25H12.5V23.75C12.5 24.413 12.2366 25.0489 11.7678 25.5178C11.2989 25.9866 10.663 26.25 10 26.25ZM10 26.25C9.33696 26.25 8.70107 25.9866 8.23223 25.5178C7.76339 25.0489 7.5 24.413 7.5 23.75V6.25C7.5 5.58696 7.23661 4.95107 6.76777 4.48223C6.29893 4.01339 5.66304 3.75 5 3.75C4.33696 3.75 3.70107 4.01339 3.23223 4.48223C2.76339 4.95107 2.5 5.58696 2.5 6.25V10H7.5" stroke="black" stroke-width="2" stroke-linecap="round" stroke-linejoin="round"/>
<path d="M23.75 21.25V6.25C23.75 5.58696 23.4866 4.95107 23.0178 4.48223C22.5489 4.01339 21.913 3.75 21.25 3.75H5" stroke="black" stroke-width="2" stroke-linecap="round" stroke-linejoin="round"/>
<path d="M18.75 10H12.5" stroke="black" stroke-width="2" stroke-linecap="round" stroke-linejoin="round"/>
<path d="M18.75 15H12.5" stroke="black" stroke-width="2" stroke-linecap="round" stroke-linejoin="round"/>
</svg>
