<svg width="40" height="40" viewBox="0 0 40 40" fill="none" xmlns="http://www.w3.org/2000/svg">
<path d="M11.6666 33.3333H6.66665C5.78259 33.3333 4.93474 32.9821 4.30962 32.357C3.6845 31.7319 3.33331 30.8841 3.33331 30V8.33333C3.33331 6.5 4.83331 5 6.66665 5H13.2166C13.7657 5.00284 14.3055 5.14125 14.7881 5.40293C15.2708 5.66461 15.6814 6.04146 15.9833 6.5L17.35 8.5C17.6519 8.95854 18.0625 9.33539 18.5451 9.59707C19.0278 9.85875 19.5676 9.99716 20.1166 10H33.3333C34.2174 10 35.0652 10.3512 35.6903 10.9763C36.3155 11.6014 36.6666 12.4493 36.6666 13.3333M26.6666 23.3333V26.6667L28.3333 28.3333M36.6666 26.6667C36.6666 32.1895 32.1895 36.6667 26.6666 36.6667C21.1438 36.6667 16.6666 32.1895 16.6666 26.6667C16.6666 21.1438 21.1438 16.6667 26.6666 16.6667C32.1895 16.6667 36.6666 21.1438 36.6666 26.6667Z" stroke="black" stroke-width="2" stroke-linecap="round" stroke-linejoin="round"/>
</svg>
