<svg width="40" height="40" viewBox="0 0 40 40" fill="none" xmlns="http://www.w3.org/2000/svg">
<path d="M30 15H33.3333C34.2174 15 35.0652 15.3512 35.6903 15.9763C36.3155 16.6014 36.6666 17.4493 36.6666 18.3333V36.6667L30 30H20C19.1159 30 18.2681 29.6488 17.643 29.0237C17.0178 28.3986 16.6666 27.5507 16.6666 26.6667V25M23.3333 15C23.3333 15.8841 22.9821 16.7319 22.357 17.357C21.7319 17.9821 20.884 18.3333 20 18.3333H9.99998L3.33331 25V6.66667C3.33331 4.83333 4.83331 3.33333 6.66665 3.33333H20C20.884 3.33333 21.7319 3.68452 22.357 4.30964C22.9821 4.93476 23.3333 5.78261 23.3333 6.66667V15Z" stroke="black" stroke-width="2" stroke-linecap="round" stroke-linejoin="round"/>
</svg>
