<svg width="30" height="30" viewBox="0 0 30 30" fill="none" xmlns="http://www.w3.org/2000/svg">
<g id="thumbs-down">
<path id="Vector" d="M21.25 17.5V2.5" stroke="#959595" stroke-width="2" stroke-linecap="round" stroke-linejoin="round"/>
<path id="Vector_2" d="M11.25 22.65L12.5 17.5H5.21252C4.82441 17.5 4.44163 17.4096 4.09449 17.2361C3.74735 17.0625 3.44539 16.8105 3.21252 16.5C2.97966 16.1895 2.82228 15.8291 2.75285 15.4472C2.68342 15.0654 2.70385 14.6726 2.81252 14.3L5.72502 4.3C5.87648 3.78071 6.19228 3.32456 6.62502 3C7.05777 2.67544 7.5841 2.5 8.12502 2.5H25C25.6631 2.5 26.2989 2.76339 26.7678 3.23223C27.2366 3.70107 27.5 4.33696 27.5 5V15C27.5 15.663 27.2366 16.2989 26.7678 16.7678C26.2989 17.2366 25.6631 17.5 25 17.5H21.55C21.0849 17.5002 20.6291 17.6302 20.2338 17.8753C19.8386 18.1205 19.5195 18.471 19.3125 18.8875L15 27.5C14.4106 27.4927 13.8304 27.3523 13.3028 27.0893C12.7752 26.8262 12.3139 26.4474 11.9533 25.981C11.5927 25.5146 11.3421 24.9728 11.2204 24.396C11.0986 23.8192 11.1087 23.2223 11.25 22.65Z" stroke="#959595" stroke-width="2" stroke-linecap="round" stroke-linejoin="round"/>
</g>
</svg>
